<?xml version="1.0" encoding="utf-8"?>
<!-- Generator: Adobe Illustrator 20.0.0, SVG Export Plug-In . SVG Version: 6.00 Build 0)  -->
<svg fill="white" version="1.1" xmlns="http://www.w3.org/2000/svg" xmlns:xlink="http://www.w3.org/1999/xlink" x="0px" y="0px"
	 viewBox="0 0 515.9 66.5" enable-background="new 0 0 515.9 66.5" xml:space="preserve">
<g id="Layer_1">
</g>
<g fill="white" id="Layer_2">
	<path d="M112.1,65H77.9V5.6h34.2v10.3H90.5v13h20.1v10.3H90.5v15.3h21.6V65z"/>
	<path d="M167,65h-34.2V5.6H167v10.3h-21.6v13h20.1v10.3h-20.1v15.3H167V65z"/>
	<path d="M235.4,65h-14.3l-15.6-25l-5.3,3.8V65h-12.6V5.6h12.6v27.2l5-7l16.1-20.2h14l-20.7,26.3L235.4,65z"/>
	<path d="M286.3,48.5c0,5.4-1.9,9.6-5.8,12.7c-3.9,3.1-9.2,4.6-16.1,4.6c-6.3,0-11.9-1.2-16.8-3.6V50.5c4,1.8,7.4,3,10.2,3.8
		c2.8,0.7,5.3,1.1,7.6,1.1c2.8,0,4.9-0.5,6.4-1.6c1.5-1.1,2.2-2.6,2.2-4.7c0-1.2-0.3-2.2-1-3.1c-0.6-0.9-1.6-1.8-2.9-2.6
		c-1.3-0.8-3.8-2.2-7.7-4c-3.6-1.7-6.3-3.3-8.2-4.9c-1.8-1.6-3.3-3.4-4.3-5.5c-1.1-2.1-1.6-4.5-1.6-7.3c0-5.3,1.8-9.4,5.3-12.4
		c3.6-3,8.5-4.5,14.8-4.5c3.1,0,6,0.4,8.8,1.1c2.8,0.7,5.7,1.8,8.8,3.1l-4.1,9.8c-3.2-1.3-5.8-2.2-7.9-2.7c-2.1-0.5-4.1-0.8-6.1-0.8
		c-2.4,0-4.2,0.6-5.5,1.7c-1.3,1.1-1.9,2.6-1.9,4.3c0,1.1,0.3,2.1,0.8,2.9c0.5,0.8,1.3,1.6,2.5,2.4c1.1,0.8,3.8,2.2,8,4.2
		c5.6,2.7,9.4,5.3,11.4,8C285.2,41.4,286.3,44.6,286.3,48.5z"/>
	<path d="M328.2,65h-12.6V16.1h-16.1V5.6h44.8v10.5h-16.1V65z"/>
	<path d="M396,65h-34.2V5.6H396v10.3h-21.6v13h20.1v10.3h-20.1v15.3H396V65z"/>
	<path d="M429.3,42.2V65h-12.6V5.6H434c8.1,0,14,1.5,17.9,4.4c3.9,2.9,5.8,7.4,5.8,13.4c0,3.5-1,6.6-2.9,9.3
		c-1.9,2.7-4.6,4.9-8.2,6.4c8.9,13.3,14.8,22,17.5,25.9h-14L436,42.2H429.3z M429.3,32h4.1c4,0,6.9-0.7,8.8-2
		c1.9-1.3,2.8-3.4,2.8-6.3c0-2.8-1-4.8-2.9-6c-1.9-1.2-4.9-1.8-9-1.8h-3.8V32z"/>
	<path d="M515,48.5c0,5.4-1.9,9.6-5.8,12.7c-3.9,3.1-9.2,4.6-16.1,4.6c-6.3,0-11.9-1.2-16.8-3.6V50.5c4,1.8,7.4,3,10.2,3.8
		c2.8,0.7,5.3,1.1,7.6,1.1c2.8,0,4.9-0.5,6.4-1.6c1.5-1.1,2.2-2.6,2.2-4.7c0-1.2-0.3-2.2-1-3.1c-0.6-0.9-1.6-1.8-2.9-2.6
		c-1.3-0.8-3.8-2.2-7.7-4c-3.6-1.7-6.3-3.3-8.2-4.9c-1.8-1.6-3.3-3.4-4.3-5.5c-1.1-2.1-1.6-4.5-1.6-7.3c0-5.3,1.8-9.4,5.3-12.4
		s8.5-4.5,14.8-4.5c3.1,0,6,0.4,8.8,1.1c2.8,0.7,5.7,1.8,8.8,3.1l-4.1,9.8c-3.2-1.3-5.8-2.2-7.9-2.7c-2.1-0.5-4.1-0.8-6.1-0.8
		c-2.4,0-4.2,0.6-5.5,1.7s-1.9,2.6-1.9,4.3c0,1.1,0.3,2.1,0.8,2.9c0.5,0.8,1.3,1.6,2.5,2.4s3.8,2.2,8,4.2c5.6,2.7,9.4,5.3,11.4,8
		C514,41.4,515,44.6,515,48.5z"/>
	<polygon fill="none" points="14.4,13 68.3,12.3 68.3,30 14.4,30.7 	"/>
	<path d="M36.8,54.9L36.4,55c-2.7,0.5-5.4,0.8-8.1,0.8c-5.2,0-9.2-1.8-11.9-5.3c-2.7-3.5-4.1-8.5-4.1-15.1c0-6.3,1.7-11.3,5-15.1
		c-1.7-0.7-1.5-2.7-1.1-3.1c2.9-2.3,8.2-0.4,13-0.4c1.7,0,2.4-0.5,4.1-1.3c0.1-0.3-14.9-1.3-22.5-2.7c-1.3-0.2-2.3,0-3.4,1.2
		C3,19.2,0.4,26.8,0.4,35.2c0,9.7,2.3,17.2,7,22.3c4.6,5.1,11.4,7.7,20.1,7.7c3.5,0,6.9-0.3,10.3-0.7c3.2-0.5,6.7-1.3,10.3-2.5V42.5
		l-11.3,0.1V54.9z"/>
	<g>
		<g>
			<defs>
				<rect id="SVGID_1_" x="22" y="37.2" width="41.5" height="11"/>
			</defs>
			<clipPath id="SVGID_2_">
				<use xlink:href="#SVGID_1_"  overflow="visible"/>
			</clipPath>
			<path clip-path="url(#SVGID_2_)" d="M58.2,37.3c-4.2,0.5-2.7,3.2-2.7,3.2c-0.8-1.7,3-2.3,2.4,0.5c-0.6,2.7-7.1,0.3-7.1,0.3
				S50.3,41,50,40.9c-2.6-1-5.3,0.7-7.5,1.7c-2.2-0.9-4.9-2.7-7.5-1.7c-0.3,0.1-0.5,0.2-0.8,0.4c0,0-6.5,2.4-7.1-0.3
				c-0.6-2.7,3.2-2.2,2.4-0.5c0,0,1.5-2.7-2.7-3.2c-4.2-0.5-6.3,3.8-3.5,7.9c2.5,3.6,9.6,2.7,12.8,1.8c0.1,0,0.1,0,0.2-0.1
				c0.4-0.1,0.7-0.2,0.9-0.3c2.4-0.9,4.2,0.8,5.3-1.2c1.1,1.9,2.9,0.3,5.3,1.2c0.1,0,0.1,0,0.2,0.1c0.2,0.1,0.4,0.1,0.6,0.2
				c0.1,0,0.3,0.1,0.4,0.1c3.2,0.9,10.2,1.8,12.7-1.8C64.5,41,62.4,36.7,58.2,37.3L58.2,37.3z M58.2,37.3"/>
		</g>
	</g>
	<path d="M63.9,14.1c0,0-14.9,1.5-16.5,1.6c-3,0.2-4.7,2.1-4.9,4.2c-0.1,0-0.7-0.2-1.5-0.2c-0.7,0-1.4,0.2-1.5,0.2
		c-0.3-2.1-2-4-4.9-4.2c-1.6-0.1-16.5-1.6-16.5-1.6c-1.3,0-2.1,2-2.1,3v2.7c0,0.6,0.2,1.1,0.6,1.5l2.5,2.5l0.1,2
		c0.2,3.6,2.2,5.6,6.8,6.6l6,1c3.7,0,6.1-2.9,6.8-6.5c0,0,0.3-1,0.5-2c0.2-0.1,1-0.3,1.7-0.3s1.5,0.2,1.7,0.3c0.2,1,0.5,2,0.5,2
		c0.7,3.6,3.1,6.5,6.8,6.5l6-1c4.5-0.9,6.6-2.9,6.8-6.6l0.1-2l2.5-2.5c0.4-0.4,0.6-0.9,0.6-1.5v-2.7C66.1,16,65.2,14.1,63.9,14.1z
		 M20.6,19.5c-0.2,0.2-0.6,0.4-0.9,0.4c-0.3,0-0.7-0.1-0.9-0.4c-0.2-0.2-0.4-0.6-0.4-0.9s0.1-0.7,0.4-0.9c0.2-0.2,0.6-0.4,0.9-0.4
		c0.3,0,0.7,0.1,0.9,0.4c0.2,0.2,0.4,0.6,0.4,0.9C21,18.9,20.8,19.3,20.6,19.5z M34.9,25.9c-0.3,1.6-1.6,3.3-3.2,3.1l-5.2-0.8
		c-1.7-0.3-3.1-1.6-3.2-3.1l-0.2-3.2c0-0.7,0.1-1.7,0.6-2.2c0.5-0.5,1-0.8,1.8-0.8l7.9,1.1c0.8,0.1,1.2,0.3,1.5,0.7
		c0.4,0.4,0.6,1.2,0.5,1.8L34.9,25.9z M58.6,25c-0.1,1.5-1.4,2.9-3.2,3.1l-5.2,0.8c-1.6,0.2-2.9-1.4-3.2-3.1l-0.6-3.5
		c-0.1-0.6,0.1-1.4,0.5-1.8c0.3-0.4,0.7-0.5,1.5-0.7l7.9-1.1c0.8,0,1.3,0.2,1.8,0.8c0.4,0.5,0.6,1.5,0.6,2.2L58.6,25z M63.3,19.5
		c-0.2,0.2-0.6,0.4-0.9,0.4c-0.3,0-0.7-0.1-0.9-0.4c-0.2-0.2-0.4-0.6-0.4-0.9c0-0.3,0.1-0.7,0.4-0.9c0.2-0.2,0.6-0.4,0.9-0.4
		c0.3,0,0.7,0.1,0.9,0.4c0.2,0.2,0.4,0.6,0.4,0.9S63.5,19.3,63.3,19.5z"/>
	<path d="M51.1,11.8c5.5-1.8,6.8-7.3,5.6-9.9c-5,3.9-8,4.5-10.9,4.4c3.4-1.2,3.6-5.7,3.6-5.7s-5.5,4.1-11.8,4.2
		c-3.4-1.2-16.3-2.5-24.2,3.7C12.8,9,13,9.9,13.7,10c6.2,1.2,17.1,1.8,22.3,2.5C43.4,13.4,49.2,12.5,51.1,11.8z"/>
</g>
</svg>
